<svg id="Camada_1" data-name="Camada 1" xmlns="http://www.w3.org/2000/svg" viewBox="0 0 512.98 83.79"><defs><style>.cls-1{fill:#fff;}</style></defs><g id="type"><path id="type_CompoundPathItem_" data-name="type &lt;CompoundPathItem&gt;" class="cls-1" d="M158.94,20.53a16.59,16.59,0,0,0-9.8-5,49.8,49.8,0,0,0-6.82-.53H107.88L95.68,68.82H114.4l4.41-19.22h20c1.8,0,11.38.22,17.6-5.27a19.57,19.57,0,0,0,6.06-14.26A13.13,13.13,0,0,0,158.94,20.53ZM142.68,35a6.54,6.54,0,0,1-5.09,2.44c-.53.07-1,.07-1.5.15H121.71l2.4-10.6H138c1.65,0,3.44.07,4.72,1.29a4,4,0,0,1,1.19,3.06A5.87,5.87,0,0,1,142.68,35Z"/><path id="type_PathItem_" data-name="type &lt;PathItem&gt;" class="cls-1" d="M189.05,31.68a27.88,27.88,0,0,0-2.9,3l1.45-6.32H170.08l-9.3,40.38h17.6c.76-3.51,3.74-17.3,5-20.65A9.44,9.44,0,0,1,185.16,45c2.37-2.37,6.48-2.44,7.32-2.44a26,26,0,0,1,5.94.84l3.66-15.85a17,17,0,0,0-2.75-.23A15.89,15.89,0,0,0,189.05,31.68Z"/><path id="type_CompoundPathItem_2" data-name="type &lt;CompoundPathItem&gt;" class="cls-1" d="M259.71,35.57a14.31,14.31,0,0,0-4-3.66C250,28,243,27.26,236.32,27.19c-7.54-.08-14.78.61-21.48,4.34C205,37,203.72,44.94,203.72,49.43a19.74,19.74,0,0,0,4.41,12.8,18.42,18.42,0,0,0,5.49,4.12c3.5,1.83,8.76,3.5,17.6,3.5,3,0,14.63.23,23.85-6.93a20.44,20.44,0,0,0,8.22-16.3,18.63,18.63,0,0,0-1.06-6.33A13,13,0,0,0,259.71,35.57ZM240.29,56.44c-3,2.37-6.94,2.44-8.16,2.44s-5.48.08-8.38-3.27a8.78,8.78,0,0,1-2-5.79,12,12,0,0,1,5-9.68,14.61,14.61,0,0,1,7.62-2.06,13.23,13.23,0,0,1,5,.76,8.72,8.72,0,0,1,5.26,8.38A12,12,0,0,1,240.29,56.44Z"/><path id="type_CompoundPathItem_3" data-name="type &lt;CompoundPathItem&gt;" class="cls-1" d="M314.08,15,310,32.29a24.39,24.39,0,0,0-3.5-2.28c-4.8-2.67-10.44-2.75-12.19-2.75-11.43,0-18,5.26-20.88,8.77a23,23,0,0,0-5.48,14.78c0,12.11,8.76,19.12,20.19,19.12a24.17,24.17,0,0,0,11.27-2.59,17,17,0,0,0,3-1.91l-.76,3.36h17.68L331.83,15Zm-10.9,40.45a10.75,10.75,0,0,1-7.69,2.9c-4.42,0-6.78-1.91-7.7-3.13a8.7,8.7,0,0,1-1.6-5.4,10.51,10.51,0,0,1,4.12-8.61A12.36,12.36,0,0,1,297.85,39c2.13,0,8.76.45,8.76,8A12.88,12.88,0,0,1,303.18,55.45Z"/><path id="type_CompoundPathItem_4" data-name="type &lt;CompoundPathItem&gt;" class="cls-1" d="M386.8,40a19.47,19.47,0,0,0-5.33-6.78c-6-5-13.34-5.95-20.88-5.95-7.31,0-14.47,1.15-20.57,5.49-5.64,4-9.37,10-9.37,17a19.57,19.57,0,0,0,2.21,8.91,16.42,16.42,0,0,0,3,4,20.68,20.68,0,0,0,5.56,3.89c6.78,3.35,14.55,3.27,16.76,3.27,9.22,0,14.86-1.67,18.44-3.35a18.73,18.73,0,0,0,9.68-9.14l-18.52-1.14a18.67,18.67,0,0,1-2.59,1.9,11.53,11.53,0,0,1-5.63,1.37c-4.8,0-7.62-2.13-8.69-3.66a15.05,15.05,0,0,1-1.6-3.73h39.62C388.63,47.91,388.48,43.72,386.8,40Zm-36.34,4.19a10.87,10.87,0,0,1,1.6-2.67c1.29-1.45,4.19-3.5,9-3.5,3.43,0,7.16,1,9.07,3.81a10.08,10.08,0,0,1,1.06,2.36Z"/><path id="type_PathItem_2" data-name="type &lt;PathItem&gt;" class="cls-1" d="M435,46.16A65.24,65.24,0,0,0,425.23,44l-8.53-1.38a4.15,4.15,0,0,1-2.9-1.6,1.81,1.81,0,0,1-.38-1,3.24,3.24,0,0,1,2.44-2.74,13.24,13.24,0,0,1,3.74-.38c4.19,0,6.78.84,7.84,2.59a5.25,5.25,0,0,1,.54,1.9l16.83-.68c-.38-2.44-.76-4.72-2.13-6.63a14.71,14.71,0,0,0-4-3.43c-5-3-10.82-3.43-15.93-3.43-7,0-11.12.46-14.24,1.22-1.22.31-8.23,1.91-11.2,7.32a10,10,0,0,0-1.37,5,8.61,8.61,0,0,0,1.14,4.34c2.51,4.88,8.53,6.1,13.33,7.09L419.82,54c1.83.38,2.67.68,3.2,1.6a2.74,2.74,0,0,1-1.9,4,9.42,9.42,0,0,1-3.05.45,19.94,19.94,0,0,1-6.55-.91,4.31,4.31,0,0,1-3-3.58l-18.21.69c.46,2.66.84,4.87,2.44,6.85a14.72,14.72,0,0,0,5.79,4.12c6.78,3,15,2.81,16.38,2.81,5.87,0,12.73-.3,18.67-3,5.18-2.29,6.93-5.26,7.69-7.55a10.58,10.58,0,0,0,.61-3.58,10.22,10.22,0,0,0-1.06-4.57C440.09,49.66,438.72,47.61,435,46.16Z"/><path id="type_CompoundPathItem_5" data-name="type &lt;CompoundPathItem&gt;" class="cls-1" d="M498.87,30.77c-2.13-1.53-5.94-3.43-12.34-3.51a23.89,23.89,0,0,0-12.34,3.13,16.85,16.85,0,0,0-2.29,1.52l.76-3.5h-17.6L442.49,82.73h17.6l4.35-18.59c5.63,5.56,13.86,5.79,16.15,5.79,2.89,0,11.65-.38,18.44-6.78a24.12,24.12,0,0,0,7.46-17.3A17.71,17.71,0,0,0,498.87,30.77ZM481.65,57.05a12.69,12.69,0,0,1-4.64.77,10.44,10.44,0,0,1-7-2.21A8,8,0,0,1,467.79,50c0-3.35,2.21-10.75,11.81-10.59,4.87,0,8.53,2.51,8.53,7.84A10.75,10.75,0,0,1,481.65,57.05Z"/></g><path id="logoMark" class="cls-1" d="M60.66,28.49A13.48,13.48,0,0,0,52.88,31l-8.32-8.43a13.56,13.56,0,1,0-2.78,2.85L50,33.7a13.52,13.52,0,0,0-1.61,14L29.94,59.88a13.53,13.53,0,1,0,2.26,3.28l18.37-12.1A13.54,13.54,0,1,0,60.66,28.49Zm.21,13.4ZM34,14.6ZM20,68.79Z"/></svg>